<svg width="169" height="166" viewBox="0 0 169 166" fill="none" xmlns="http://www.w3.org/2000/svg">
<rect width="169" height="166" rx="83" fill="#D9D9D9" fill-opacity="0.1"/>
<path d="M83.3894 143.304H84.8454V157.72H83.3894V143.304Z" fill="white" fill-opacity="0.6"/>
<path d="M58.7581 139.425L59.4669 144.654L61.0929 145.327L62.8379 141.114L64.1831 141.672L59.9154 151.975L56.5895 150.597C55.8109 150.275 55.2107 149.87 54.7888 149.384C54.357 148.893 54.1019 148.366 54.0236 147.802C53.9453 147.239 54.0266 146.666 54.2674 146.085C54.5613 145.376 55.0274 144.835 55.6659 144.465C56.2944 144.09 57.0544 143.984 57.9458 144.145L57.1468 138.757L58.7581 139.425ZM60.6459 146.406L58.6651 145.586C57.9359 145.284 57.3155 145.235 56.8039 145.439C56.2882 145.652 55.9059 146.059 55.6569 146.661C55.4038 147.272 55.3902 147.82 55.616 148.306C55.832 148.788 56.3096 149.182 57.0487 149.488L59.0295 150.309L60.6459 146.406Z" fill="white" fill-opacity="0.6"/>
<path d="M49.8105 134.219C50.6708 134.793 51.3223 135.517 51.7652 136.391C52.2021 137.273 52.389 138.212 52.3258 139.209C52.2479 140.209 51.9066 141.161 51.3022 142.066C50.6977 142.971 49.9515 143.646 49.0635 144.092C48.1607 144.54 47.2212 144.727 46.2451 144.652C45.2629 144.586 44.3417 144.266 43.4814 143.691C42.6123 143.11 41.9592 142.379 41.5223 141.496C41.0795 140.623 40.8941 139.691 40.9661 138.7C41.0381 137.709 41.3793 136.757 41.9897 135.843C42.6001 134.93 43.3493 134.25 44.2373 133.805C45.1253 133.359 46.0603 133.169 47.0424 133.235C48.0186 133.31 48.9413 133.638 49.8105 134.219ZM49.1082 135.27C48.4608 134.837 47.7791 134.6 47.0633 134.557C46.3385 134.509 45.6431 134.667 44.9771 135.03C44.3022 135.387 43.7188 135.934 43.227 136.67C42.7292 137.415 42.4473 138.163 42.3815 138.915C42.3008 139.669 42.4169 140.369 42.7298 141.014C43.0428 141.659 43.5274 142.201 44.1837 142.64C44.84 143.078 45.5261 143.319 46.242 143.361C46.9579 143.403 47.6532 143.245 48.3281 142.888C48.9882 142.534 49.5672 141.984 50.065 141.239C50.5568 140.503 50.8431 139.758 50.9238 139.004C50.9956 138.243 50.875 137.541 50.5621 136.895C50.2403 136.244 49.7557 135.702 49.1082 135.27Z" fill="white" fill-opacity="0.6"/>
<path d="M40.1092 127.914L37.3487 125.153L38.1859 124.316L41.976 128.106L34.0903 135.992L33.0608 134.962L40.1092 127.914Z" fill="white" fill-opacity="0.6"/>
<path d="M25.257 123.799L28.3567 121.728L26.0989 118.349L27.0966 117.682L29.3545 121.062L32.5473 118.928L30.0228 115.15L31.0206 114.483L34.354 119.472L25.0681 125.677L21.7347 120.688L22.7325 120.021L25.257 123.799Z" fill="white" fill-opacity="0.6"/>
<path d="M20.7505 92.7692L21.6994 97.5397L24.3066 97.9347L24.6062 99.4412L12.9447 97.6498L12.6169 96.0021L22.7084 89.9001L23.0081 91.4066L20.7505 92.7692ZM19.6704 93.4082L14.5399 96.4842L20.457 97.3627L19.6704 93.4082Z" fill="white" fill-opacity="0.6"/>
<path d="M16.798 65.3884C17.7082 65.5694 18.4043 66.0341 18.8862 66.7825C19.3597 67.5184 19.4696 68.5245 19.2157 69.8008L18.7974 71.9036L23.3639 72.8119L23.0799 74.24L12.1422 72.0643L12.8445 68.5335C13.09 67.299 13.5745 66.422 14.2977 65.9024C15.023 65.3724 15.8565 65.2011 16.798 65.3884ZM18.0387 69.5667C18.1969 68.7716 18.1408 68.1514 17.8705 67.7061C17.6002 67.2608 17.1459 66.9747 16.5078 66.8478C15.1582 66.5793 14.3294 67.2193 14.0214 68.7676L13.6032 70.8704L17.6205 71.6695L18.0387 69.5667Z" fill="white" fill-opacity="0.6"/>
<path d="M26.0774 55.6776L24.216 60.1713L26.1643 61.9482L25.5765 63.3673L16.8755 55.399L17.5184 53.8469L29.2993 54.3798L28.7115 55.7988L26.0774 55.6776ZM24.8243 55.6088L18.8495 55.3161L23.2813 59.3339L24.8243 55.6088ZM15.5027 52.2326L15.8837 56.0792L14.8785 55.6629L14.335 51.7489L15.5027 52.2326Z" fill="white" fill-opacity="0.6"/>
<path d="M28.5737 40.924C27.8608 40.8198 27.1951 40.9137 26.5765 41.206C25.949 41.4923 25.4189 41.9591 24.9863 42.6066C24.5537 43.254 24.3134 43.9401 24.2653 44.6649C24.2143 45.3748 24.3674 46.0673 24.7246 46.7422C25.079 47.4022 25.6197 47.9753 26.347 48.4612C27.0743 48.9471 27.8106 49.2275 28.556 49.3022C29.3074 49.3681 30.0057 49.2446 30.651 48.9317C31.2933 48.6039 31.8308 48.1164 32.2634 47.4689C32.8678 46.5643 33.0951 45.6386 32.9452 44.6917C32.7953 43.7449 32.2918 42.9145 31.4346 42.2006L28.9634 45.899L27.979 45.2412L31.3124 40.2524L32.2436 40.8746C32.959 41.4552 33.4996 42.1629 33.8656 42.9975C34.2227 43.8262 34.3653 44.6976 34.2933 45.6117C34.2125 46.5198 33.8995 47.3819 33.3543 48.1978C32.7794 49.0581 32.0554 49.7097 31.1822 50.1526C30.3002 50.5895 29.3607 50.7763 28.3638 50.7132C27.3728 50.6411 26.425 50.3029 25.5203 49.6984C24.6157 49.094 23.9405 48.3477 23.4947 47.4598C23.0459 46.557 22.8591 45.6175 22.934 44.6413C23.0002 43.6592 23.3206 42.738 23.8955 41.8777C24.5533 40.8932 25.3779 40.187 26.3694 39.7591C27.3669 39.3223 28.4246 39.2272 29.5426 39.474L28.5737 40.924Z" fill="white" fill-opacity="0.6"/>
<path d="M33.3339 30.7653L41.2195 38.6509L40.19 39.6805L32.3043 31.7948L33.3339 30.7653Z" fill="white" fill-opacity="0.6"/>
<path d="M53.7449 29.0184L52.5343 29.8273L42.7318 25.6973L47.6652 33.0808L46.4546 33.8897L40.25 24.6038L41.4606 23.7949L51.2543 27.9116L46.3297 20.5415L47.5403 19.7326L53.7449 29.0184Z" fill="white" fill-opacity="0.6"/>
<path d="M62.5231 22.332L58.0294 24.1934L58.1506 26.8275L56.7315 27.4153L56.2134 15.6284L57.7655 14.9854L65.719 23.6926L64.3 24.2804L62.5231 22.332ZM61.6857 21.3974L57.6679 16.9656L57.9606 22.9403L61.6857 21.3974Z" fill="white" fill-opacity="0.6"/>
<path d="M85.709 22.696H84.253V8.28H85.709V22.696Z" fill="white" fill-opacity="0.6"/>
<path d="M110.344 26.5756L109.635 21.3463L108.009 20.6728L106.264 24.8857L104.919 24.3285L109.186 14.0254L112.512 15.4031C113.291 15.7256 113.891 16.13 114.313 16.6165C114.745 17.1071 115 17.6342 115.078 18.1977C115.157 18.7613 115.075 19.3337 114.834 19.9152C114.541 20.6247 114.074 21.1648 113.436 21.5353C112.807 21.91 112.047 22.0166 111.156 21.8552L111.955 27.243L110.344 26.5756ZM108.456 19.5937L110.437 20.4142C111.166 20.7163 111.786 20.7654 112.298 20.5617C112.814 20.3481 113.196 19.9407 113.445 19.3396C113.698 18.7286 113.712 18.1801 113.486 17.694C113.27 17.212 112.792 16.8179 112.053 16.5117L110.072 15.6913L108.456 19.5937Z" fill="white" fill-opacity="0.6"/>
<path d="M119.291 31.7814C118.431 31.2066 117.779 30.4825 117.337 29.6093C116.9 28.7273 116.713 27.7878 116.776 26.7909C116.854 25.791 117.195 24.8388 117.8 23.9341C118.404 23.0295 119.15 22.3543 120.038 21.9085C120.941 21.4598 121.881 21.2729 122.857 21.3479C123.839 21.414 124.76 21.7345 125.62 22.3093C126.49 22.89 127.143 23.6214 127.58 24.5035C128.022 25.3767 128.208 26.3088 128.136 27.2998C128.064 28.2908 127.722 29.243 127.112 30.1565C126.502 31.07 125.753 31.7497 124.865 32.1955C123.977 32.6413 123.041 32.8311 122.059 32.765C121.083 32.69 120.16 32.3621 119.291 31.7814ZM119.994 30.7304C120.641 31.163 121.323 31.4004 122.039 31.4426C122.763 31.4907 123.459 31.3331 124.125 30.9699C124.8 30.6127 125.383 30.066 125.875 29.3298C126.373 28.5848 126.654 27.8367 126.72 27.0853C126.801 26.331 126.685 25.6312 126.372 24.9859C126.059 24.3407 125.574 23.7988 124.918 23.3603C124.262 22.9217 123.576 22.6814 122.86 22.6392C122.144 22.597 121.449 22.7546 120.774 23.1119C120.114 23.4662 119.535 24.0158 119.037 24.7608C118.545 25.497 118.259 26.2422 118.178 26.9965C118.106 27.7567 118.227 28.4595 118.54 29.1047C118.862 29.7559 119.346 30.2978 119.994 30.7304Z" fill="white" fill-opacity="0.6"/>
<path d="M128.993 38.0865L131.753 40.847L130.916 41.6843L127.126 37.8942L135.011 30.0085L136.041 31.0381L128.993 38.0865Z" fill="white" fill-opacity="0.6"/>
<path d="M143.845 42.2004L140.745 44.2716L143.003 47.6507L142.005 48.3174L139.747 44.9383L136.554 47.0717L139.079 50.8499L138.081 51.5165L134.748 46.5277L144.034 40.3231L147.367 45.3119L146.369 45.9786L143.845 42.2004Z" fill="white" fill-opacity="0.6"/>
<path d="M148.351 73.2308L147.402 68.4603L144.795 68.0653L144.496 66.5588L156.157 68.3502L156.485 69.9979L146.393 76.0999L146.094 74.5934L148.351 73.2308ZM149.431 72.5918L154.562 69.5158L148.645 68.6373L149.431 72.5918Z" fill="white" fill-opacity="0.6"/>
<path d="M152.304 100.612C151.394 100.431 150.698 99.9661 150.216 99.2177C149.742 98.4818 149.632 97.4757 149.886 96.1994L150.304 94.0966L145.738 93.1883L146.022 91.7602L156.96 93.9359L156.257 97.4667C156.012 98.7012 155.527 99.5782 154.804 100.098C154.079 100.628 153.245 100.799 152.304 100.612ZM151.063 96.4335C150.905 97.2286 150.961 97.8488 151.231 98.2941C151.502 98.7394 151.956 99.0255 152.594 99.1524C153.944 99.4209 154.772 98.7809 155.08 97.2326L155.499 95.1298L151.481 94.3307L151.063 96.4335Z" fill="white" fill-opacity="0.6"/>
<path d="M143.028 110.322L144.889 105.829L142.941 104.052L143.529 102.633L152.23 110.601L151.587 112.153L139.806 111.62L140.394 110.201L143.028 110.322ZM144.281 110.391L150.256 110.684L145.824 106.666L144.281 110.391ZM153.602 113.767L153.222 109.921L154.227 110.337L154.77 114.251L153.602 113.767Z" fill="white" fill-opacity="0.6"/>
<path d="M140.528 125.076C141.241 125.18 141.907 125.086 142.525 124.794C143.153 124.508 143.683 124.041 144.115 123.393C144.548 122.746 144.788 122.06 144.837 121.335C144.888 120.625 144.734 119.933 144.377 119.258C144.023 118.598 143.482 118.025 142.755 117.539C142.028 117.053 141.291 116.773 140.546 116.698C139.794 116.632 139.096 116.755 138.451 117.068C137.809 117.396 137.271 117.884 136.838 118.531C136.234 119.436 136.007 120.361 136.157 121.308C136.306 122.255 136.81 123.085 137.667 123.799L140.138 120.101L141.123 120.759L137.789 125.748L136.858 125.125C136.143 124.545 135.602 123.837 135.236 123.002C134.879 122.174 134.737 121.302 134.809 120.388C134.889 119.48 135.202 118.618 135.748 117.802C136.322 116.942 137.046 116.29 137.92 115.847C138.802 115.411 139.741 115.224 140.738 115.287C141.729 115.359 142.677 115.697 143.581 116.302C144.486 116.906 145.161 117.652 145.607 118.54C146.056 119.443 146.243 120.383 146.168 121.359C146.102 122.341 145.781 123.262 145.206 124.122C144.549 125.107 143.724 125.813 142.732 126.241C141.735 126.678 140.677 126.773 139.559 126.526L140.528 125.076Z" fill="white" fill-opacity="0.6"/>
<path d="M135.768 135.235L127.882 127.349L128.912 126.32L136.797 134.205L135.768 135.235Z" fill="white" fill-opacity="0.6"/>
<path d="M115.36 136.982L116.571 136.173L126.373 140.303L121.44 132.92L122.65 132.111L128.855 141.397L127.644 142.205L117.851 138.089L122.775 145.459L121.565 146.268L115.36 136.982Z" fill="white" fill-opacity="0.6"/>
<path d="M106.579 143.669L111.072 141.807L110.951 139.173L112.37 138.585L112.888 150.372L111.336 151.015L103.383 142.308L104.802 141.72L106.579 143.669ZM107.416 144.603L111.434 149.035L111.141 143.06L107.416 144.603Z" fill="white" fill-opacity="0.6"/>
</svg>
